ply
format ascii 1.0
comment Created by Blender 2.80 (sub 75) - www.blender.org, source file: 'spaceship.blend'
element vertex 114
property float x
property float y
property float z
property float nx
property float ny
property float nz
property uchar red
property uchar green
property uchar blue
property uchar alpha
element face 38
property list uchar uint vertex_indices
end_header
-0.000000 1.124962 0.648347 0.848180 0.386374 0.362361 71 2 255 255
0.293893 0.325421 0.812955 0.848180 0.386374 0.362361 71 3 255 255
0.384711 0.325420 0.600378 0.848180 0.386374 0.362361 83 42 255 255
-0.000000 1.124962 0.648347 -0.000000 0.201650 0.979458 71 2 255 255
-0.293892 0.325421 0.812956 -0.000000 0.201650 0.979458 87 53 255 255
-0.000000 0.325421 0.812956 -0.000000 0.201650 0.979458 72 14 255 255
-0.384710 0.325420 0.600378 -0.963907 -0.103235 0.245411 71 7 255 255
-0.469374 0.325421 0.267841 -0.963907 -0.103235 0.245411 255 168 218 255
0.008393 -3.720332 0.442484 -0.963907 -0.103235 0.245411 105 199 255 255
-0.000000 0.325421 0.812956 0.000000 -0.091189 0.995834 72 14 255 255
-0.293892 0.325421 0.812956 0.000000 -0.091189 0.995834 87 53 255 255
0.008393 -3.720332 0.442484 0.000000 -0.091189 0.995834 105 199 255 255
0.384711 0.325420 0.600378 0.914950 -0.100360 0.390889 83 42 255 255
0.293893 0.325421 0.812955 0.914950 -0.100360 0.390889 71 3 255 255
0.008393 -3.720332 0.442484 0.914950 -0.100360 0.390889 105 199 255 255
0.000000 0.000000 0.000000 0.543585 -0.097922 -0.833622 255 10 225 255
0.469373 0.325420 0.267841 0.543585 -0.097922 -0.833622 255 168 218 255
0.008393 -3.720332 0.442484 0.543585 -0.097922 -0.833622 105 199 255 255
0.469373 0.325420 0.267841 0.000000 0.635492 -0.772108 255 168 218 255
0.000000 0.000000 0.000000 0.000000 0.635492 -0.772108 255 10 225 255
-0.469374 0.325421 0.267841 0.000000 0.635492 -0.772108 255 168 218 255
-0.000000 0.504066 0.547497 -0.453986 0.174875 -0.873679 47 255 0 255
0.469373 0.325420 0.267841 -0.453986 0.174875 -0.873679 255 168 218 255
0.248007 0.036713 0.325081 -0.453986 0.174875 -0.873679 87 255 75 255
-0.469374 0.325421 0.267841 0.453985 0.174876 -0.873679 255 168 218 255
-0.000000 0.504066 0.547497 0.453985 0.174876 -0.873679 47 255 0 255
-0.248007 0.036713 0.325081 0.453985 0.174876 -0.873679 61 255 39 255
0.469373 0.325420 0.267841 0.883238 0.411492 0.224867 255 168 218 255
-0.000000 1.124962 0.648347 0.883238 0.411492 0.224867 71 2 255 255
0.384711 0.325420 0.600378 0.883238 0.411492 0.224867 83 42 255 255
-0.000000 1.124962 0.648347 0.000003 0.201650 0.979458 71 2 255 255
-0.000000 0.325421 0.812956 0.000003 0.201650 0.979458 72 14 255 255
0.293893 0.325421 0.812955 0.000003 0.201650 0.979458 71 3 255 255
-0.000000 1.124962 0.648347 -0.848181 0.386373 0.362360 71 2 255 255
-0.384710 0.325420 0.600378 -0.848181 0.386373 0.362360 71 7 255 255
-0.293892 0.325421 0.812956 -0.848181 0.386373 0.362360 87 53 255 255
-0.384710 0.325420 0.600378 -0.883237 0.411489 0.224874 71 7 255 255
-0.000000 1.124962 0.648347 -0.883237 0.411489 0.224874 71 2 255 255
-0.469374 0.325421 0.267841 -0.883237 0.411489 0.224874 255 168 218 255
0.008393 -3.720332 0.442484 -0.544650 -0.100261 -0.832649 105 199 255 255
-0.469374 0.325421 0.267841 -0.544650 -0.100261 -0.832649 255 168 218 255
0.000000 0.000000 0.000000 -0.544650 -0.100261 -0.832649 255 10 225 255
-0.293892 0.325421 0.812956 -0.914596 -0.104115 0.390736 87 53 255 255
-0.384710 0.325420 0.600378 -0.914596 -0.104115 0.390736 71 7 255 255
0.008393 -3.720332 0.442484 -0.914596 -0.104115 0.390736 105 199 255 255
0.008393 -3.720332 0.442484 0.000003 -0.091189 0.995834 105 199 255 255
0.293893 0.325421 0.812955 0.000003 -0.091189 0.995834 71 3 255 255
-0.000000 0.325421 0.812956 0.000003 -0.091189 0.995834 72 14 255 255
0.008393 -3.720332 0.442484 0.964299 -0.099276 0.245505 105 199 255 255
0.469373 0.325420 0.267841 0.964299 -0.099276 0.245505 255 168 218 255
0.384711 0.325420 0.600378 0.964299 -0.099276 0.245505 83 42 255 255
-0.000000 0.504066 0.547497 -0.466275 0.141830 -0.873196 47 255 0 255
-0.000000 1.124962 0.648347 -0.466275 0.141830 -0.873196 71 2 255 255
0.469373 0.325420 0.267841 -0.466275 0.141830 -0.873196 255 168 218 255
-0.469374 0.325421 0.267841 0.466275 0.141830 -0.873196 255 168 218 255
-0.000000 1.124962 0.648347 0.466275 0.141830 -0.873196 71 2 255 255
-0.000000 0.504066 0.547497 0.466275 0.141830 -0.873196 47 255 0 255
-0.469374 0.325421 0.267841 -0.000000 0.194477 0.980907 255 168 218 255
-0.248007 0.036713 0.325081 -0.000000 0.194477 0.980907 61 255 39 255
0.248007 0.036713 0.325081 -0.000000 0.194477 0.980907 87 255 75 255
-0.469374 0.325421 0.267841 0.000000 0.194478 0.980907 255 168 218 255
0.248007 0.036713 0.325081 0.000000 0.194478 0.980907 87 255 75 255
0.469373 0.325420 0.267841 0.000000 0.194478 0.980907 255 168 218 255
-0.248007 0.036713 0.325081 -0.000000 0.429724 -0.902960 61 255 39 255
-0.000000 0.504066 0.547497 -0.000000 0.429724 -0.902960 47 255 0 255
0.248007 0.036713 0.325081 -0.000000 0.429724 -0.902960 87 255 75 255
0.714348 -0.505560 0.709155 0.927305 -0.338690 0.159355 255 238 247 255
1.005713 0.080342 0.258933 0.927305 -0.338690 0.159355 255 168 218 255
1.074676 1.057915 1.935339 0.927305 -0.338690 0.159355 255 168 218 255
1.005713 0.080342 0.258933 0.357667 0.800231 -0.481357 255 168 218 255
0.469373 0.325420 0.267841 0.357667 0.800231 -0.481357 255 168 218 255
1.074676 1.057915 1.935339 0.357667 0.800231 -0.481357 255 168 218 255
0.469373 0.325420 0.267841 -0.925960 -0.076598 0.369772 255 168 218 255
0.714348 -0.505560 0.709155 -0.925960 -0.076598 0.369772 255 238 247 255
1.074676 1.057915 1.935339 -0.925960 -0.076598 0.369772 255 168 218 255
0.714348 -0.505560 0.709155 -0.246854 -0.510283 -0.823817 255 238 247 255
0.469373 0.325420 0.267841 -0.246854 -0.510283 -0.823817 255 168 218 255
1.005713 0.080342 0.258933 -0.246854 -0.510283 -0.823817 255 168 218 255
0.715432 0.256755 -0.033623 -0.652698 0.422385 -0.628948 255 170 219 255
0.469373 0.325420 0.267841 -0.652698 0.422385 -0.628948 255 177 221 255
2.847887 3.587393 -0.009833 -0.652698 0.422385 -0.628948 255 197 229 255
0.469373 0.325420 0.267841 0.041536 0.054637 0.997642 255 177 221 255
1.005713 0.080342 0.258933 0.041536 0.054637 0.997642 255 168 218 255
2.847887 3.587393 -0.009833 0.041536 0.054637 0.997642 255 197 229 255
1.005713 0.080342 0.258933 0.552080 -0.348060 -0.757669 255 168 218 255
0.715432 0.256755 -0.033623 0.552080 -0.348060 -0.757669 255 170 219 255
2.847887 3.587393 -0.009833 0.552080 -0.348060 -0.757669 255 197 229 255
0.715432 0.256755 -0.033623 -0.413763 -0.900680 -0.132570 255 170 219 255
1.005713 0.080342 0.258933 -0.413763 -0.900680 -0.132570 255 168 218 255
0.469373 0.325420 0.267841 -0.413763 -0.900680 -0.132570 255 177 221 255
-1.075742 1.057909 1.935349 -0.927305 -0.338690 0.159355 255 209 234 255
-1.006779 0.080337 0.258945 -0.927305 -0.338690 0.159355 255 168 218 255
-0.715414 -0.505565 0.709166 -0.927305 -0.338690 0.159355 255 170 219 255
-1.075742 1.057909 1.935349 -0.357071 0.800439 -0.481454 255 209 234 255
-0.469374 0.325421 0.267841 -0.357071 0.800439 -0.481454 255 168 218 255
-1.006779 0.080337 0.258945 -0.357071 0.800439 -0.481454 255 168 218 255
-1.075742 1.057909 1.935349 0.925602 -0.077272 0.370527 255 209 234 255
-0.715414 -0.505565 0.709166 0.925602 -0.077272 0.370527 255 170 219 255
-0.469374 0.325421 0.267841 0.925602 -0.077272 0.370527 255 168 218 255
-1.006779 0.080337 0.258945 0.246444 -0.510484 -0.823815 255 168 218 255
-0.469374 0.325421 0.267841 0.246444 -0.510484 -0.823815 255 168 218 255
-0.715414 -0.505565 0.709166 0.246444 -0.510484 -0.823815 255 170 219 255
-2.856848 3.587391 -0.009833 0.644710 0.417353 -0.640441 255 208 234 255
-0.469374 0.325421 0.267841 0.644710 0.417353 -0.640441 255 168 218 255
-0.724391 0.256755 -0.033623 0.644710 0.417353 -0.640441 255 168 218 255
-2.856848 3.587391 -0.009833 -0.041419 0.054609 0.997648 255 208 234 255
-1.006779 0.080337 0.258945 -0.041419 0.054609 0.997648 255 168 218 255
-0.469374 0.325421 0.267841 -0.041419 0.054609 0.997648 255 168 218 255
-2.856848 3.587391 -0.009833 -0.558316 -0.352099 -0.751205 255 208 234 255
-0.724391 0.256755 -0.033623 -0.558316 -0.352099 -0.751205 255 168 218 255
-1.006779 0.080337 0.258945 -0.558316 -0.352099 -0.751205 255 168 218 255
-0.469374 0.325421 0.267841 0.412579 -0.899445 -0.144141 255 168 218 255
-1.006779 0.080337 0.258945 0.412579 -0.899445 -0.144141 255 168 218 255
-0.724391 0.256755 -0.033623 0.412579 -0.899445 -0.144141 255 168 218 255
3 0 1 2
3 3 4 5
3 6 7 8
3 9 10 11
3 12 13 14
3 15 16 17
3 18 19 20
3 21 22 23
3 24 25 26
3 27 28 29
3 30 31 32
3 33 34 35
3 36 37 38
3 39 40 41
3 42 43 44
3 45 46 47
3 48 49 50
3 51 52 53
3 54 55 56
3 57 58 59
3 60 61 62
3 63 64 65
3 66 67 68
3 69 70 71
3 72 73 74
3 75 76 77
3 78 79 80
3 81 82 83
3 84 85 86
3 87 88 89
3 90 91 92
3 93 94 95
3 96 97 98
3 99 100 101
3 102 103 104
3 105 106 107
3 108 109 110
3 111 112 113
