ply
format ascii 1.0
comment Created by Blender 2.80 (sub 75) - www.blender.org, source file: 'spaceship.blend'
element vertex 24
property float x
property float y
property float z
property float nx
property float ny
property float nz
property uchar red
property uchar green
property uchar blue
property uchar alpha
element face 38
property list uchar uint vertex_indices
end_header
-0.000000 1.124962 0.648347 0.000000 0.998108 0.061373 71 2 255 255
0.293893 0.325421 0.812955 0.568773 0.116398 0.814173 71 3 255 255
0.384711 0.325420 0.600378 0.937162 0.153905 0.313028 83 42 255 255
-0.293892 0.325421 0.812956 -0.569353 0.115299 0.813929 87 53 255 255
-0.000000 0.325421 0.812956 0.000000 0.055818 0.998413 72 14 255 255
-0.384710 0.325420 0.600378 -0.937468 0.151982 0.313089 71 7 255 255
-0.469374 0.325421 0.267841 0.037812 0.611652 -0.790185 255 168 218 255
0.008393 -3.720332 0.442484 0.002106 -0.999969 0.002747 105 199 255 255
0.000000 0.000000 0.000000 -0.000885 0.138646 -0.990326 255 10 225 255
0.469373 0.325420 0.267841 -0.046571 0.615375 -0.786828 255 168 218 255
-0.000000 0.504066 0.547497 0.000000 0.212470 -0.977142 47 255 0 255
0.248007 0.036713 0.325081 -0.446577 0.893063 0.054567 87 255 75 255
-0.248007 0.036713 0.325081 0.446577 0.893063 0.054567 61 255 39 255
0.714348 -0.505560 0.709155 -0.127659 -0.982452 0.135899 255 238 247 255
1.005713 0.080342 0.258933 0.751091 -0.461715 -0.471847 255 168 218 255
1.074676 1.057915 1.935339 0.181921 0.569628 0.801477 255 168 218 255
0.715432 0.256755 -0.033623 -0.320139 -0.408887 -0.854549 255 170 219 255
0.469373 0.325420 0.267841 -0.046571 0.615375 -0.786828 255 177 221 255
2.847887 3.587393 -0.009833 0.531602 0.845851 -0.043428 255 197 229 255
-1.075742 1.057909 1.935349 -0.182104 0.569597 0.801447 255 209 234 255
-1.006779 0.080337 0.258945 -0.750755 -0.465651 -0.468490 255 168 218 255
-0.715414 -0.505565 0.709166 0.127262 -0.982513 0.135899 255 170 219 255
-2.856848 3.587391 -0.009833 -0.532640 0.845210 -0.043458 255 208 234 255
-0.724391 0.256755 -0.033623 0.308481 -0.409314 -0.858638 255 168 218 255
3 0 1 2
3 0 3 4
3 5 6 7
3 4 3 7
3 2 1 7
3 8 9 7
3 9 8 6
3 10 9 11
3 6 10 12
3 9 12 11
3 9 0 2
3 0 4 1
3 0 5 3
3 5 0 6
3 7 6 8
3 3 5 7
3 7 1 4
3 7 9 2
3 10 0 9
3 6 0 10
3 9 6 12
3 12 10 11
3 13 14 15
3 14 9 15
3 9 13 15
3 13 9 14
3 16 17 18
3 17 14 18
3 14 16 18
3 16 14 17
3 19 20 21
3 19 6 20
3 19 21 6
3 20 6 21
3 22 6 23
3 22 20 6
3 22 23 20
3 6 20 23
