ply
format ascii 1.0
comment Created by Blender 2.80 (sub 75) - www.blender.org, source file: 'bunny.blend'
element vertex 423
property float x
property float y
property float z
property float nx
property float ny
property float nz
element face 141
property list uchar uint vertex_indices
end_header
-0.748960 0.211854 0.813496 -0.181025 -0.057687 0.981785
-0.923476 -0.067178 0.764922 -0.181025 -0.057687 0.981785
-0.614770 -0.234502 0.812011 -0.181025 -0.057687 0.981785
-0.580933 0.186410 0.785962 0.096832 -0.363275 0.926636
-0.595107 0.915038 1.073092 0.096832 -0.363275 0.926636
-0.748960 0.211854 0.813496 0.096832 -0.363275 0.926636
-0.738949 -0.277276 -0.130850 -0.126440 -0.855657 -0.501861
-0.450286 -0.178196 -0.372505 -0.126440 -0.855657 -0.501861
-0.382178 -0.327197 -0.135621 -0.126440 -0.855657 -0.501861
-0.744929 -0.267878 0.229095 0.047750 -0.842311 0.536873
-0.586232 -0.357825 0.073861 0.047750 -0.842311 0.536873
-0.335997 -0.132455 0.405192 0.047750 -0.842311 0.536873
-0.586232 -0.357825 0.073861 -0.136903 -0.952340 -0.272590
-0.738949 -0.277276 -0.130850 -0.136903 -0.952340 -0.272590
-0.382178 -0.327197 -0.135621 -0.136903 -0.952340 -0.272590
-0.034797 -0.401357 -0.449534 -0.024646 -0.832015 -0.554206
0.358040 -0.302062 -0.616073 -0.024646 -0.832015 -0.554206
0.219284 -0.517575 -0.286359 -0.024646 -0.832015 -0.554206
-0.585900 -0.373724 -0.592189 -0.110383 -0.707601 0.697938
-0.240674 -0.277272 -0.439802 -0.110383 -0.707601 0.697938
-0.450286 -0.178196 -0.372505 -0.110383 -0.707601 0.697938
0.162777 -0.466144 0.117457 -0.217164 -0.592104 0.776049
0.458356 -0.165911 0.429239 -0.217164 -0.592104 0.776049
-0.172860 -0.369462 0.097300 -0.217164 -0.592104 0.776049
-0.240674 -0.277272 -0.439802 -0.012520 -0.985772 -0.167620
-0.172860 -0.369462 0.097300 -0.012520 -0.985772 -0.167620
-0.382178 -0.327197 -0.135621 -0.012520 -0.985772 -0.167620
-0.172860 -0.369462 0.097300 -0.018570 -0.986562 -0.162327
-0.586232 -0.357825 0.073861 -0.018570 -0.986562 -0.162327
-0.382178 -0.327197 -0.135621 -0.018570 -0.986562 -0.162327
0.679399 0.297888 0.074589 0.888600 -0.077849 0.452028
0.458356 -0.165911 0.429239 0.888600 -0.077849 0.452028
0.640187 -0.238113 0.059360 0.888600 -0.077849 0.452028
-0.172860 -0.369462 0.097300 0.277995 -0.958751 0.059288
0.458356 -0.165911 0.429239 0.277995 -0.958751 0.059288
0.272457 -0.215721 0.495420 0.277995 -0.958751 0.059288
-0.935045 -0.333248 0.328343 -0.975034 -0.177198 0.133828
-0.923476 -0.067178 0.764922 -0.975034 -0.177198 0.133828
-0.977127 -0.065860 0.375783 -0.975034 -0.177198 0.133828
0.272457 -0.215721 0.495420 -0.188921 -0.417254 0.888937
-0.341565 0.030367 0.480435 -0.188921 -0.417254 0.888937
-0.335997 -0.132455 0.405192 -0.188921 -0.417254 0.888937
0.272457 -0.215721 0.495420 -0.048747 -0.912217 0.406796
-0.586232 -0.357825 0.073861 -0.048747 -0.912217 0.406796
-0.172860 -0.369462 0.097300 -0.048747 -0.912217 0.406796
0.272457 -0.215721 0.495420 -0.196801 -0.735168 0.648690
-0.335997 -0.132455 0.405192 -0.196801 -0.735168 0.648690
-0.586232 -0.357825 0.073861 -0.196801 -0.735168 0.648690
0.272457 -0.215721 0.495420 0.155616 0.068074 0.985469
0.471264 0.110931 0.441462 0.155616 0.068074 0.985469
0.226248 0.315283 0.466036 0.155616 0.068074 0.985469
0.162777 -0.466144 0.117457 -0.266103 -0.817209 0.511232
-0.172860 -0.369462 0.097300 -0.266103 -0.817209 0.511232
-0.112004 -0.486353 -0.057875 -0.266103 -0.817209 0.511232
-0.923476 -0.067178 0.764922 -0.846768 0.496236 0.191661
-0.748960 0.211854 0.813496 -0.846768 0.496236 0.191661
-0.878340 0.181519 0.320429 -0.846768 0.496236 0.191661
0.272457 -0.215721 0.495420 0.348478 -0.057552 0.935549
0.458356 -0.165911 0.429239 0.348478 -0.057552 0.935549
0.471264 0.110931 0.441462 0.348478 -0.057552 0.935549
0.838092 -0.129968 -0.236506 -0.406031 -0.576622 0.708975
0.733863 0.049360 -0.150348 -0.406031 -0.576622 0.708975
0.613093 -0.214145 -0.433826 -0.406031 -0.576622 0.708975
-0.034797 -0.401357 -0.449534 -0.262782 -0.930873 -0.253814
0.219284 -0.517575 -0.286359 -0.262782 -0.930873 -0.253814
-0.112004 -0.486353 -0.057875 -0.262782 -0.930873 -0.253814
0.219284 -0.517575 -0.286359 -0.007033 -0.992085 0.125372
0.162777 -0.466144 0.117457 -0.007033 -0.992085 0.125372
-0.112004 -0.486353 -0.057875 -0.007033 -0.992085 0.125372
-0.670250 -0.454929 0.368822 0.537849 -0.779747 0.320489
-0.614770 -0.234502 0.812011 0.537849 -0.779747 0.320489
-0.782318 -0.453390 0.560640 0.537849 -0.779747 0.320489
0.837139 -0.062456 -0.449406 0.529164 -0.808143 -0.258633
0.838092 -0.129968 -0.236506 0.529164 -0.808143 -0.258633
0.613093 -0.214145 -0.433826 0.529164 -0.808143 -0.258633
-0.744929 -0.267878 0.229095 0.470984 -0.399482 -0.786504
-0.335997 -0.132455 0.405192 0.470984 -0.399482 -0.786504
-0.670250 -0.454929 0.368822 0.470984 -0.399482 -0.786504
-0.670250 -0.454929 0.368822 0.653124 -0.707444 0.270097
-0.335997 -0.132455 0.405192 0.653124 -0.707444 0.270097
-0.614770 -0.234502 0.812011 0.653124 -0.707444 0.270097
0.613093 -0.214145 -0.433826 0.591833 -0.802880 -0.071532
0.640187 -0.238113 0.059360 0.591833 -0.802880 -0.071532
0.219284 -0.517575 -0.286359 0.591833 -0.802880 -0.071532
0.640187 -0.238113 0.059360 0.441584 -0.880206 0.173898
0.162777 -0.466144 0.117457 0.441584 -0.880206 0.173898
0.219284 -0.517575 -0.286359 0.441584 -0.880206 0.173898
0.640187 -0.238113 0.059360 0.436370 -0.818244 0.374243
0.458356 -0.165911 0.429239 0.436370 -0.818244 0.374243
0.162777 -0.466144 0.117457 0.436370 -0.818244 0.374243
0.733863 0.049360 -0.150348 0.932782 -0.353882 -0.068442
0.640187 -0.238113 0.059360 0.932782 -0.353882 -0.068442
0.613093 -0.214145 -0.433826 0.932782 -0.353882 -0.068442
0.349731 0.456635 -0.613115 0.004611 -0.014156 -0.999889
-0.312755 0.283334 -0.613716 0.004611 -0.014156 -0.999889
-0.320844 0.552509 -0.617565 0.004611 -0.014156 -0.999889
0.023110 0.358611 0.908699 0.468277 -0.814057 0.343553
-0.062641 0.424273 1.181168 0.468277 -0.814057 0.343553
-0.461426 0.036845 0.806708 0.468277 -0.814057 0.343553
0.613093 -0.214145 -0.433826 0.502517 -0.805206 -0.314834
0.219284 -0.517575 -0.286359 0.502517 -0.805206 -0.314834
0.358040 -0.302062 -0.616073 0.502517 -0.805206 -0.314834
-0.240674 -0.277272 -0.439802 -0.490526 -0.794245 -0.358552
-0.382178 -0.327197 -0.135621 -0.490526 -0.794245 -0.358552
-0.450286 -0.178196 -0.372505 -0.490526 -0.794245 -0.358552
-0.423382 0.127468 0.674991 0.568317 -0.745298 -0.348635
0.023110 0.358611 0.908699 0.568317 -0.745298 -0.348635
-0.461426 0.036845 0.806708 0.568317 -0.745298 -0.348635
-0.648048 0.829871 0.804353 0.918128 0.106672 -0.381657
-0.580933 0.186410 0.785962 0.918128 0.106672 -0.381657
-0.652220 0.297593 0.645547 0.918128 0.106672 -0.381657
-0.426292 0.319338 -0.612684 -0.662448 0.313816 0.680208
-0.234792 0.309522 -0.421656 -0.662448 0.313816 0.680208
-0.320844 0.552509 -0.617565 -0.662448 0.313816 0.680208
-0.277767 0.007966 -0.621612 0.059388 0.011411 -0.998170
-0.265457 -0.334464 -0.624795 0.059388 0.011411 -0.998170
-0.621675 -0.069797 -0.642963 0.059388 0.011411 -0.998170
-0.277767 0.007966 -0.621612 0.079915 -0.080644 -0.993534
-0.621675 -0.069797 -0.642963 0.079915 -0.080644 -0.993534
-0.411088 0.076608 -0.637908 0.079915 -0.080644 -0.993534
-0.240674 -0.277272 -0.439802 0.144410 -0.950664 0.274562
-0.585900 -0.373724 -0.592189 0.144410 -0.950664 0.274562
-0.265457 -0.334464 -0.624795 0.144410 -0.950664 0.274562
-0.787226 0.066852 -0.261649 -0.915015 0.250128 -0.316516
-0.929261 -0.027869 0.074107 -0.915015 0.250128 -0.316516
-0.831756 0.300685 0.051870 -0.915015 0.250128 -0.316516
-0.740982 0.173558 -0.600925 -0.589508 -0.497086 0.636699
-0.449617 -0.028446 -0.488865 -0.589508 -0.497086 0.636699
-0.521725 0.175213 -0.396626 -0.589508 -0.497086 0.636699
-0.738949 -0.277276 -0.130850 -0.850570 -0.286844 -0.440739
-0.929261 -0.027869 0.074107 -0.850570 -0.286844 -0.440739
-0.787226 0.066852 -0.261649 -0.850570 -0.286844 -0.440739
0.349731 0.456635 -0.613115 0.673650 0.722359 -0.156184
0.679399 0.297888 0.074589 0.673650 0.722359 -0.156184
0.597048 0.270923 -0.405322 0.673650 0.722359 -0.156184
0.358040 -0.302062 -0.616073 0.617142 -0.444573 -0.649223
0.509919 -0.071684 -0.629456 0.617142 -0.444573 -0.649223
0.613093 -0.214145 -0.433826 0.617142 -0.444573 -0.649223
0.349731 0.456635 -0.613115 0.717905 0.215344 -0.661996
0.597048 0.270923 -0.405322 0.717905 0.215344 -0.661996
0.420581 0.199799 -0.619828 0.717905 0.215344 -0.661996
-0.585900 -0.373724 -0.592189 -0.846573 -0.010744 0.532165
-0.450286 -0.178196 -0.372505 -0.846573 -0.010744 0.532165
-0.621675 -0.069797 -0.642963 -0.846573 -0.010744 0.532165
-0.580933 0.186410 0.785962 0.968456 0.107439 -0.224832
-0.648048 0.829871 0.804353 0.968456 0.107439 -0.224832
-0.595107 0.915038 1.073092 0.968456 0.107439 -0.224832
0.788918 0.240833 -0.427751 0.920426 0.171427 -0.351326
0.894821 0.092301 -0.222776 0.920426 0.171427 -0.351326
0.837139 -0.062456 -0.449406 0.920426 0.171427 -0.351326
-0.341565 0.030367 0.480435 0.836827 -0.260108 0.481731
-0.423382 0.127468 0.674991 0.836827 -0.260108 0.481731
-0.614770 -0.234502 0.812011 0.836827 -0.260108 0.481731
0.837139 -0.062456 -0.449406 0.966943 -0.241786 -0.080999
0.894821 0.092301 -0.222776 0.966943 -0.241786 -0.080999
0.838092 -0.129968 -0.236506 0.966943 -0.241786 -0.080999
-0.614770 -0.234502 0.812011 0.866498 -0.491395 -0.087822
-0.423382 0.127468 0.674991 0.866498 -0.491395 -0.087822
-0.461426 0.036845 0.806708 0.866498 -0.491395 -0.087822
0.509919 -0.071684 -0.629456 0.474522 0.137525 -0.869434
0.788918 0.240833 -0.427751 0.474522 0.137525 -0.869434
0.837139 -0.062456 -0.449406 0.474522 0.137525 -0.869434
0.679399 0.297888 0.074589 0.945756 -0.078147 0.315338
0.640187 -0.238113 0.059360 0.945756 -0.078147 0.315338
0.733863 0.049360 -0.150348 0.945756 -0.078147 0.315338
0.733863 0.049360 -0.150348 0.441304 -0.167096 0.881663
0.838092 -0.129968 -0.236506 0.441304 -0.167096 0.881663
0.894821 0.092301 -0.222776 0.441304 -0.167096 0.881663
-0.977127 -0.065860 0.375783 -0.522740 0.018035 -0.852302
-0.878340 0.181519 0.320429 -0.522740 0.018035 -0.852302
-0.744929 -0.267878 0.229095 -0.522740 0.018035 -0.852302
-0.929261 -0.027869 0.074107 -0.823167 -0.337212 0.456820
-0.744929 -0.267878 0.229095 -0.823167 -0.337212 0.456820
-0.878340 0.181519 0.320429 -0.823167 -0.337212 0.456820
0.226248 0.315283 0.466036 -0.002304 0.055051 0.998481
-0.341565 0.030367 0.480435 -0.002304 0.055051 0.998481
0.272457 -0.215721 0.495420 -0.002304 0.055051 0.998481
-0.595107 0.915038 1.073092 0.327294 -0.389444 0.860937
-0.738992 0.769311 1.061872 0.327294 -0.389444 0.860937
-0.748960 0.211854 0.813496 0.327294 -0.389444 0.860937
-0.580933 0.186410 0.785962 -0.086814 0.068487 0.993868
-0.614770 -0.234502 0.812011 -0.086814 0.068487 0.993868
-0.461426 0.036845 0.806708 -0.086814 0.068487 0.993868
0.679399 0.297888 0.074589 0.881301 -0.061774 0.468501
0.471264 0.110931 0.441462 0.881301 -0.061774 0.468501
0.458356 -0.165911 0.429239 0.881301 -0.061774 0.468501
-0.748960 0.211854 0.813496 0.168509 0.047386 0.984561
-0.614770 -0.234502 0.812011 0.168509 0.047386 0.984561
-0.580933 0.186410 0.785962 0.168509 0.047386 0.984561
0.679399 0.297888 0.074589 0.707331 0.380981 0.595430
0.544369 0.350672 0.201222 0.707331 0.380981 0.595430
0.471264 0.110931 0.441462 0.707331 0.380981 0.595430
-0.341565 0.030367 0.480435 0.830268 -0.210163 0.516224
-0.614770 -0.234502 0.812011 0.830268 -0.210163 0.516224
-0.335997 -0.132455 0.405192 0.830268 -0.210163 0.516224
-0.172860 -0.369462 0.097300 -0.954170 -0.191805 -0.229719
-0.034797 -0.401357 -0.449534 -0.954170 -0.191805 -0.229719
-0.112004 -0.486353 -0.057875 -0.954170 -0.191805 -0.229719
-0.172860 -0.369462 0.097300 -0.517314 -0.851961 -0.080917
-0.240674 -0.277272 -0.439802 -0.517314 -0.851961 -0.080917
-0.034797 -0.401357 -0.449534 -0.517314 -0.851961 -0.080917
-0.923476 -0.067178 0.764922 -0.404717 -0.538749 0.738887
-0.782318 -0.453390 0.560640 -0.404717 -0.538749 0.738887
-0.614770 -0.234502 0.812011 -0.404717 -0.538749 0.738887
0.544369 0.350672 0.201222 0.508151 0.527384 0.680918
0.226248 0.315283 0.466036 0.508151 0.527384 0.680918
0.471264 0.110931 0.441462 0.508151 0.527384 0.680918
-0.586232 -0.357825 0.073861 -0.481988 -0.876052 0.014865
-0.744929 -0.267878 0.229095 -0.481988 -0.876052 0.014865
-0.738949 -0.277276 -0.130850 -0.481988 -0.876052 0.014865
-0.171219 -0.473123 -0.565403 -0.320086 -0.589260 0.741834
-0.034797 -0.401357 -0.449534 -0.320086 -0.589260 0.741834
-0.240674 -0.277272 -0.439802 -0.320086 -0.589260 0.741834
-0.580933 0.186410 0.785962 -0.207317 0.934186 -0.290373
-0.062641 0.424273 1.181168 -0.207317 0.934186 -0.290373
0.023110 0.358611 0.908699 -0.207317 0.934186 -0.290373
-0.738949 -0.277276 -0.130850 -0.793922 -0.608013 0.002685
-0.744929 -0.267878 0.229095 -0.793922 -0.608013 0.002685
-0.929261 -0.027869 0.074107 -0.793922 -0.608013 0.002685
-0.450286 -0.178196 -0.372505 -0.938947 -0.208480 -0.273703
-0.521725 0.175213 -0.396626 -0.938947 -0.208480 -0.273703
-0.449617 -0.028446 -0.488865 -0.938947 -0.208480 -0.273703
-0.265457 -0.334464 -0.624795 -0.846890 -0.465362 0.257324
-0.171219 -0.473123 -0.565403 -0.846890 -0.465362 0.257324
-0.240674 -0.277272 -0.439802 -0.846890 -0.465362 0.257324
-0.461426 0.036845 0.806708 -0.496231 -0.282642 0.820895
-0.062641 0.424273 1.181168 -0.496231 -0.282642 0.820895
-0.580933 0.186410 0.785962 -0.496231 -0.282642 0.820895
-0.782318 -0.453390 0.560640 -0.830759 -0.465264 0.305565
-0.923476 -0.067178 0.764922 -0.830759 -0.465264 0.305565
-0.935045 -0.333248 0.328343 -0.830759 -0.465264 0.305565
-0.648048 0.829871 0.804353 -0.942841 0.149544 -0.297803
-0.748960 0.211854 0.813496 -0.942841 0.149544 -0.297803
-0.738992 0.769311 1.061872 -0.942841 0.149544 -0.297803
-0.163936 0.648341 -0.026634 -0.866774 0.444613 -0.225880
-0.093637 0.559192 -0.471874 -0.866774 0.444613 -0.225880
-0.234792 0.309522 -0.421656 -0.866774 0.444613 -0.225880
-0.648048 0.829871 0.804353 -0.887101 0.138334 -0.440358
-0.652220 0.297593 0.645547 -0.887101 0.138334 -0.440358
-0.748960 0.211854 0.813496 -0.887101 0.138334 -0.440358
-0.163936 0.648341 -0.026634 -0.951672 0.295707 -0.082930
-0.234792 0.309522 -0.421656 -0.951672 0.295707 -0.082930
-0.222071 0.489816 0.075244 -0.951672 0.295707 -0.082930
-0.450286 -0.178196 -0.372505 -0.649232 0.468482 0.599184
-0.449617 -0.028446 -0.488865 -0.649232 0.468482 0.599184
-0.621675 -0.069797 -0.642963 -0.649232 0.468482 0.599184
-0.528243 0.385391 -0.181713 -0.583419 0.609143 -0.537184
-0.787226 0.066852 -0.261649 -0.583419 0.609143 -0.537184
-0.831756 0.300685 0.051870 -0.583419 0.609143 -0.537184
-0.923476 -0.067178 0.764922 -0.911068 0.392226 0.126937
-0.878340 0.181519 0.320429 -0.911068 0.392226 0.126937
-0.977127 -0.065860 0.375783 -0.911068 0.392226 0.126937
0.226248 0.315283 0.466036 -0.048505 0.890101 0.453175
-0.222071 0.489816 0.075244 -0.048505 0.890101 0.453175
-0.432772 0.292921 0.439423 -0.048505 0.890101 0.453175
0.894821 0.092301 -0.222776 0.039379 0.818680 0.572898
0.788918 0.240833 -0.427751 0.039379 0.818680 0.572898
0.733863 0.049360 -0.150348 0.039379 0.818680 0.572898
-0.621675 -0.069797 -0.642963 -0.556758 -0.398829 0.728667
-0.449617 -0.028446 -0.488865 -0.556758 -0.398829 0.728667
-0.740982 0.173558 -0.600925 -0.556758 -0.398829 0.728667
-0.878340 0.181519 0.320429 -0.530060 0.805353 0.265411
-0.637629 0.344114 0.307788 -0.530060 0.805353 0.265411
-0.831756 0.300685 0.051870 -0.530060 0.805353 0.265411
-0.222071 0.489816 0.075244 -0.068687 0.434657 0.897973
0.544369 0.350672 0.201222 -0.068687 0.434657 0.897973
0.127971 0.629868 0.034228 -0.068687 0.434657 0.897973
-0.521725 0.175213 -0.396626 -0.543978 0.591600 -0.595061
-0.787226 0.066852 -0.261649 -0.543978 0.591600 -0.595061
-0.528243 0.385391 -0.181713 -0.543978 0.591600 -0.595061
-0.878340 0.181519 0.320429 -0.560961 0.822185 0.096612
-0.748960 0.211854 0.813496 -0.560961 0.822185 0.096612
-0.652220 0.297593 0.645547 -0.560961 0.822185 0.096612
-0.929261 -0.027869 0.074107 -0.958615 0.281695 -0.041286
-0.878340 0.181519 0.320429 -0.958615 0.281695 -0.041286
-0.831756 0.300685 0.051870 -0.958615 0.281695 -0.041286
-0.670250 -0.454929 0.368822 -0.380449 -0.899450 -0.215055
-0.782318 -0.453390 0.560640 -0.380449 -0.899450 -0.215055
-0.935045 -0.333248 0.328343 -0.380449 -0.899450 -0.215055
-0.234792 0.309522 -0.421656 -0.495818 0.431864 0.753431
-0.093637 0.559192 -0.471874 -0.495818 0.431864 0.753431
-0.320844 0.552509 -0.617565 -0.495818 0.431864 0.753431
0.733863 0.049360 -0.150348 0.915473 0.361169 -0.177385
0.597048 0.270923 -0.405322 0.915473 0.361169 -0.177385
0.679399 0.297888 0.074589 0.915473 0.361169 -0.177385
0.544369 0.350672 0.201222 0.498055 0.848834 0.177263
0.679399 0.297888 0.074589 0.498055 0.848834 0.177263
0.127971 0.629868 0.034228 0.498055 0.848834 0.177263
0.358040 -0.302062 -0.616073 0.008811 0.098318 -0.995116
-0.265457 -0.334464 -0.624795 0.008811 0.098318 -0.995116
0.053069 -0.078439 -0.596679 0.008811 0.098318 -0.995116
-0.222071 0.489816 0.075244 -0.133003 0.569898 0.810880
0.127971 0.629868 0.034228 -0.133003 0.569898 0.810880
-0.163936 0.648341 -0.026634 -0.133003 0.569898 0.810880
0.733863 0.049360 -0.150348 0.191957 0.789461 0.583013
0.788918 0.240833 -0.427751 0.191957 0.789461 0.583013
0.597048 0.270923 -0.405322 0.191957 0.789461 0.583013
0.053069 -0.078439 -0.596679 0.078283 0.012078 -0.996858
-0.265457 -0.334464 -0.624795 0.078283 0.012078 -0.996858
-0.277767 0.007966 -0.621612 0.078283 0.012078 -0.996858
0.053069 -0.078439 -0.596679 0.085319 0.039389 -0.995575
-0.277767 0.007966 -0.621612 0.085319 0.039389 -0.995575
-0.312755 0.283334 -0.613716 0.085319 0.039389 -0.995575
-0.341565 0.030367 0.480435 -0.044668 0.139013 0.989283
0.226248 0.315283 0.466036 -0.044668 0.139013 0.989283
-0.432772 0.292921 0.439423 -0.044668 0.139013 0.989283
-0.580933 0.186410 0.785962 0.531510 0.774361 0.343311
-0.423382 0.127468 0.674991 0.531510 0.774361 0.343311
-0.652220 0.297593 0.645547 0.531510 0.774361 0.343311
0.544369 0.350672 0.201222 0.126832 0.951718 0.279547
-0.222071 0.489816 0.075244 0.126832 0.951718 0.279547
0.226248 0.315283 0.466036 0.126832 0.951718 0.279547
-0.423382 0.127468 0.674991 0.477716 0.727753 0.492101
-0.432772 0.292921 0.439423 0.477716 0.727753 0.492101
-0.652220 0.297593 0.645547 0.477716 0.727753 0.492101
-0.341565 0.030367 0.480435 0.913095 0.349896 0.209358
-0.432772 0.292921 0.439423 0.913095 0.349896 0.209358
-0.423382 0.127468 0.674991 0.913095 0.349896 0.209358
-0.878340 0.181519 0.320429 -0.554220 0.827487 0.090031
-0.652220 0.297593 0.645547 -0.554220 0.827487 0.090031
-0.637629 0.344114 0.307788 -0.554220 0.827487 0.090031
-0.426292 0.319338 -0.612684 -0.374041 0.839263 0.394627
-0.740982 0.173558 -0.600925 -0.374041 0.839263 0.394627
-0.521725 0.175213 -0.396626 -0.374041 0.839263 0.394627
-0.637629 0.344114 0.307788 0.153573 0.977977 0.141334
-0.652220 0.297593 0.645547 0.153573 0.977977 0.141334
-0.432772 0.292921 0.439423 0.153573 0.977977 0.141334
0.420581 0.199799 -0.619828 0.098813 0.917412 -0.385475
0.597048 0.270923 -0.405322 0.098813 0.917412 -0.385475
0.788918 0.240833 -0.427751 0.098813 0.917412 -0.385475
-0.580933 0.186410 0.785962 -0.110562 0.804131 -0.584079
0.023110 0.358611 0.908699 -0.110562 0.804131 -0.584079
-0.423382 0.127468 0.674991 -0.110562 0.804131 -0.584079
-0.222071 0.489816 0.075244 -0.063466 0.892793 0.445974
-0.637629 0.344114 0.307788 -0.063466 0.892793 0.445974
-0.432772 0.292921 0.439423 -0.063466 0.892793 0.445974
0.349731 0.456635 -0.613115 0.517847 0.853944 -0.051122
0.127971 0.629868 0.034228 0.517847 0.853944 -0.051122
0.679399 0.297888 0.074589 0.517847 0.853944 -0.051122
-0.426292 0.319338 -0.612684 0.161938 0.980429 -0.111958
-0.528243 0.385391 -0.181713 0.161938 0.980429 -0.111958
-0.234792 0.309522 -0.421656 0.161938 0.980429 -0.111958
0.349731 0.456635 -0.613115 0.158385 0.966020 -0.204255
-0.093637 0.559192 -0.471874 0.158385 0.966020 -0.204255
0.127971 0.629868 0.034228 0.158385 0.966020 -0.204255
-0.528243 0.385391 -0.181713 -0.035104 0.939743 -0.340076
-0.222071 0.489816 0.075244 -0.035104 0.939743 -0.340076
-0.234792 0.309522 -0.421656 -0.035104 0.939743 -0.340076
-0.521725 0.175213 -0.396626 -0.937368 0.234407 -0.257671
-0.528243 0.385391 -0.181713 -0.937368 0.234407 -0.257671
-0.426292 0.319338 -0.612684 -0.937368 0.234407 -0.257671
-0.528243 0.385391 -0.181713 -0.327647 0.944778 0.006452
-0.637629 0.344114 0.307788 -0.327647 0.944778 0.006452
-0.222071 0.489816 0.075244 -0.327647 0.944778 0.006452
0.349731 0.456635 -0.613115 0.138369 0.955745 -0.259627
-0.320844 0.552509 -0.617565 0.138369 0.955745 -0.259627
-0.093637 0.559192 -0.471874 0.138369 0.955745 -0.259627
-0.738992 0.769311 1.061872 -0.705847 0.703383 -0.083861
-0.595107 0.915038 1.073092 -0.705847 0.703383 -0.083861
-0.648048 0.829871 0.804353 -0.705847 0.703383 -0.083861
-0.831756 0.300685 0.051870 -0.250350 0.967815 0.025667
-0.637629 0.344114 0.307788 -0.250350 0.967815 0.025667
-0.528243 0.385391 -0.181713 -0.250350 0.967815 0.025667
-0.093637 0.559192 -0.471874 0.099508 0.978579 -0.180228
-0.163936 0.648341 -0.026634 0.099508 0.978579 -0.180228
0.127971 0.629868 0.034228 0.099508 0.978579 -0.180228
0.509919 -0.071684 -0.629456 -0.094241 0.004294 -0.995540
0.358040 -0.302062 -0.616073 -0.094241 0.004294 -0.995540
0.420581 0.199799 -0.619828 -0.094241 0.004294 -0.995540
0.837139 -0.062456 -0.449406 0.385166 -0.637434 -0.667326
0.613093 -0.214145 -0.433826 0.385166 -0.637434 -0.667326
0.509919 -0.071684 -0.629456 0.385166 -0.637434 -0.667326
-0.744929 -0.267878 0.229095 -0.482503 0.078833 -0.872339
-0.935045 -0.333248 0.328343 -0.482503 0.078833 -0.872339
-0.977127 -0.065860 0.375783 -0.482503 0.078833 -0.872339
0.349731 0.456635 -0.613115 0.010453 -0.036490 -0.999279
0.053069 -0.078439 -0.596679 0.010453 -0.036490 -0.999279
-0.312755 0.283334 -0.613716 0.010453 -0.036490 -0.999279
0.788918 0.240833 -0.427751 0.439690 0.175926 -0.880751
0.509919 -0.071684 -0.629456 0.439690 0.175926 -0.880751
0.420581 0.199799 -0.619828 0.439690 0.175926 -0.880751
-0.670250 -0.454929 0.368822 -0.175759 -0.633222 -0.753750
-0.935045 -0.333248 0.328343 -0.175759 -0.633222 -0.753750
-0.744929 -0.267878 0.229095 -0.175759 -0.633222 -0.753750
-0.426292 0.319338 -0.612684 -0.094490 0.124299 -0.987736
-0.621675 -0.069797 -0.642963 -0.094490 0.124299 -0.987736
-0.740982 0.173558 -0.600925 -0.094490 0.124299 -0.987736
-0.521725 0.175213 -0.396626 -0.401564 -0.142914 -0.904611
-0.450286 -0.178196 -0.372505 -0.401564 -0.142914 -0.904611
-0.787226 0.066852 -0.261649 -0.401564 -0.142914 -0.904611
-0.787226 0.066852 -0.261649 -0.520194 -0.366229 -0.771540
-0.450286 -0.178196 -0.372505 -0.520194 -0.366229 -0.771540
-0.738949 -0.277276 -0.130850 -0.520194 -0.366229 -0.771540
0.349731 0.456635 -0.613115 -0.068317 0.007233 -0.997638
0.420581 0.199799 -0.619828 -0.068317 0.007233 -0.997638
0.053069 -0.078439 -0.596679 -0.068317 0.007233 -0.997638
-0.426292 0.319338 -0.612684 -0.045944 0.100402 -0.993886
-0.411088 0.076608 -0.637908 -0.045944 0.100402 -0.993886
-0.621675 -0.069797 -0.642963 -0.045944 0.100402 -0.993886
-0.320844 0.552509 -0.617565 -0.013752 -0.014707 -0.999797
-0.312755 0.283334 -0.613716 -0.013752 -0.014707 -0.999797
-0.426292 0.319338 -0.612684 -0.013752 -0.014707 -0.999797
-0.411088 0.076608 -0.637908 0.024206 0.104829 -0.994196
-0.426292 0.319338 -0.612684 0.024206 0.104829 -0.994196
-0.312755 0.283334 -0.613716 0.024206 0.104829 -0.994196
0.358040 -0.302062 -0.616073 0.318590 -0.926785 0.198925
-0.034797 -0.401357 -0.449534 0.318590 -0.926785 0.198925
-0.171219 -0.473123 -0.565403 0.318590 -0.926785 0.198925
0.358040 -0.302062 -0.616073 0.032439 -0.374811 -0.926533
-0.171219 -0.473123 -0.565403 0.032439 -0.374811 -0.926533
-0.265457 -0.334464 -0.624795 0.032439 -0.374811 -0.926533
-0.277767 0.007966 -0.621612 0.144871 0.046748 -0.988346
-0.411088 0.076608 -0.637908 0.144871 0.046748 -0.988346
-0.312755 0.283334 -0.613716 0.144871 0.046748 -0.988346
-0.277767 0.007966 -0.621612 -0.284617 -0.340017 0.896316
-0.310746 0.055435 -0.614078 -0.284617 -0.340017 0.896316
-0.411088 0.076608 -0.637908 -0.284617 -0.340017 0.896316
-0.585900 -0.373724 -0.592189 -0.078664 -0.173265 -0.981729
-0.621675 -0.069797 -0.642963 -0.078664 -0.173265 -0.981729
-0.265457 -0.334464 -0.624795 -0.078664 -0.173265 -0.981729
0.053069 -0.078439 -0.596679 -0.063169 0.000404 -0.998003
0.420581 0.199799 -0.619828 -0.063169 0.000404 -0.998003
0.358040 -0.302062 -0.616073 -0.063169 0.000404 -0.998003
3 0 1 2
3 3 4 5
3 6 7 8
3 9 10 11
3 12 13 14
3 15 16 17
3 18 19 20
3 21 22 23
3 24 25 26
3 27 28 29
3 30 31 32
3 33 34 35
3 36 37 38
3 39 40 41
3 42 43 44
3 45 46 47
3 48 49 50
3 51 52 53
3 54 55 56
3 57 58 59
3 60 61 62
3 63 64 65
3 66 67 68
3 69 70 71
3 72 73 74
3 75 76 77
3 78 79 80
3 81 82 83
3 84 85 86
3 87 88 89
3 90 91 92
3 93 94 95
3 96 97 98
3 99 100 101
3 102 103 104
3 105 106 107
3 108 109 110
3 111 112 113
3 114 115 116
3 117 118 119
3 120 121 122
3 123 124 125
3 126 127 128
3 129 130 131
3 132 133 134
3 135 136 137
3 138 139 140
3 141 142 143
3 144 145 146
3 147 148 149
3 150 151 152
3 153 154 155
3 156 157 158
3 159 160 161
3 162 163 164
3 165 166 167
3 168 169 170
3 171 172 173
3 174 175 176
3 177 178 179
3 180 181 182
3 183 184 185
3 186 187 188
3 189 190 191
3 192 193 194
3 195 196 197
3 198 199 200
3 201 202 203
3 204 205 206
3 207 208 209
3 210 211 212
3 213 214 215
3 216 217 218
3 219 220 221
3 222 223 224
3 225 226 227
3 228 229 230
3 231 232 233
3 234 235 236
3 237 238 239
3 240 241 242
3 243 244 245
3 246 247 248
3 249 250 251
3 252 253 254
3 255 256 257
3 258 259 260
3 261 262 263
3 264 265 266
3 267 268 269
3 270 271 272
3 273 274 275
3 276 277 278
3 279 280 281
3 282 283 284
3 285 286 287
3 288 289 290
3 291 292 293
3 294 295 296
3 297 298 299
3 300 301 302
3 303 304 305
3 306 307 308
3 309 310 311
3 312 313 314
3 315 316 317
3 318 319 320
3 321 322 323
3 324 325 326
3 327 328 329
3 330 331 332
3 333 334 335
3 336 337 338
3 339 340 341
3 342 343 344
3 345 346 347
3 348 349 350
3 351 352 353
3 354 355 356
3 357 358 359
3 360 361 362
3 363 364 365
3 366 367 368
3 369 370 371
3 372 373 374
3 375 376 377
3 378 379 380
3 381 382 383
3 384 385 386
3 387 388 389
3 390 391 392
3 393 394 395
3 396 397 398
3 399 400 401
3 402 403 404
3 405 406 407
3 408 409 410
3 411 412 413
3 414 415 416
3 417 418 419
3 420 421 422
