ply
format ascii 1.0
comment Created by Blender 2.80 (sub 75) - www.blender.org, source file: ''
element vertex 8
property float x
property float y
property float z
property uchar red
property uchar green
property uchar blue
property uchar alpha
element face 12
property list uchar uint vertex_indices
end_header
-1.000000 -1.000000 -1.000000 255 255 255 255
-1.000000 -1.000000 1.000000 255 255 255 255
-1.000000 1.000000 1.000000 255 0 31 255
-1.000000 1.000000 -1.000000 255 255 255 255
1.000000 1.000000 1.000000 255 255 255 255
1.000000 1.000000 -1.000000 255 255 255 255
1.000000 -1.000000 1.000000 255 255 255 255
1.000000 -1.000000 -1.000000 255 255 255 255
3 0 1 2
3 0 2 3
3 3 2 4
3 3 4 5
3 5 4 6
3 5 6 7
3 7 6 1
3 7 1 0
3 3 5 7
3 3 7 0
3 4 2 1
3 4 1 6
