# Blender v2.80 (sub 75) OBJ File: 'spaceship.blend'
# www.blender.org
mtllib ship.mtl
o Cube_Cube.002
v -0.189000 -0.189000 -0.189000
v -0.189000 0.189000 -0.189000
v -0.189000 -0.189000 0.189000
v -0.189000 -0.189000 -0.718214
v -0.189000 0.115968 -0.718214
v -0.189000 0.189000 0.189000
v -0.075629 0.490401 -0.189000
v -0.075629 0.490401 0.189000
v -0.081807 -0.189000 1.598561
v -1.702172 0.047252 0.130584
v -1.702172 -0.047252 0.130584
v -1.702172 -0.047252 -0.130583
v -1.702172 0.047252 -0.130583
v -1.641117 0.052971 -0.132940
v -1.641117 0.052971 0.132941
v -1.641117 -0.052971 0.132941
v -1.641117 -0.052971 -0.132940
v -1.702172 0.329848 0.130584
v -1.702172 0.329848 -0.130583
v -1.641117 0.335567 -0.132940
v -1.641117 0.335567 0.132941
v -0.189001 -0.020600 -1.707827
v -0.189001 -0.189000 -1.707827
v -0.081807 -0.032125 1.598561
v -0.088820 -0.189000 1.506350
v -0.088820 -0.017659 1.506350
v -0.081807 0.237902 1.640921
v -0.088820 0.252367 1.548710
v 0.189000 -0.189000 -0.189000
v 0.189000 0.189000 -0.189000
v 0.189000 -0.189000 0.189000
v -0.000000 0.115968 -0.718214
v -0.000000 -0.189000 -0.718214
v 0.189000 -0.189000 -0.718214
v 0.189000 0.115968 -0.718214
v 0.189000 0.189000 0.189000
v -0.000000 -0.189000 -0.189000
v 0.075629 0.490401 -0.189000
v 0.000000 -0.189000 0.189000
v 0.075629 0.490401 0.189000
v -0.000000 0.490401 -0.189000
v 0.000000 0.490401 0.189000
v 0.081808 -0.189000 1.598561
v 0.000000 0.189000 0.189000
v 1.702172 0.047252 0.130583
v 1.702172 -0.047252 0.130583
v 1.702172 -0.047252 -0.130584
v 1.702172 0.047252 -0.130584
v 1.641117 0.052971 -0.132941
v 1.641117 0.052971 0.132940
v 1.641117 -0.052971 0.132940
v 1.641117 -0.052971 -0.132941
v 1.702172 0.329848 0.130583
v 1.702172 0.329848 -0.130584
v 1.641117 0.335567 -0.132941
v 1.641117 0.335567 0.132940
v 0.188999 -0.020600 -1.707827
v 0.188999 -0.189000 -1.707827
v -0.000001 -0.020600 -1.707827
v -0.000001 -0.189000 -1.707827
v 0.000001 -0.189000 1.598561
v 0.000001 -0.032125 1.598561
v 0.081808 -0.032125 1.598561
v 0.088821 -0.189000 1.506350
v 0.088821 -0.017659 1.506350
v 0.000000 -0.017659 1.506350
v 0.000000 -0.189000 1.506350
v 0.081808 0.237902 1.640921
v 0.088821 0.252367 1.548710
v 0.000001 0.237902 1.640921
v 0.000001 0.252367 1.548710
vt 0.625000 0.500000
vt 0.625000 0.500000
vt 0.625000 0.500000
vt 0.375000 0.750000
vt 0.625000 0.750000
vt 0.375000 0.750000
vt 0.375000 0.750000
vt 0.375000 0.750000
vt 0.375000 0.500000
vt 0.375000 0.500000
vt 0.375000 0.500000
vt 0.625000 0.750000
vt 0.625000 0.750000
vt 0.625000 0.500000
vt 0.625000 0.500000
vt 0.625000 0.500000
vt 0.625000 0.750000
vt 0.625000 0.750000
vt 0.375000 0.750000
vt 0.625000 0.750000
vt 0.375000 0.750000
vt 0.375000 0.500000
vt 0.375000 0.500000
vt 0.375000 0.750000
vt 0.625000 0.750000
vt 0.625000 0.750000
vt 0.625000 0.500000
vt 0.625000 0.750000
vt 0.625000 0.750000
vt 0.375000 0.750000
vt 0.375000 0.500000
vt 0.625000 0.500000
vt 0.625000 0.500000
vt 0.625000 0.500000
vt 0.625000 0.500000
vt 0.625000 0.500000
vt 0.625000 0.500000
vt 0.625000 0.500000
vt 0.625000 0.500000
vt 0.375000 0.500000
vt 0.625000 0.500000
vt 0.625000 0.500000
vt 0.625000 0.500000
vt 0.375000 0.750000
vt 0.625000 0.750000
vt 0.625000 0.750000
vt 0.375000 0.500000
vt 0.375000 0.500000
vt 0.625000 0.750000
vt 0.625000 0.500000
vt 0.625000 0.500000
vt 0.375000 0.750000
vt 0.625000 0.750000
vt 0.375000 0.750000
vt 0.375000 0.500000
vt 0.375000 0.500000
vt 0.625000 0.750000
vt 0.375000 0.750000
vt 0.625000 0.750000
vt 0.625000 0.750000
vt 0.625000 0.500000
vt 0.625000 0.750000
vt 0.375000 0.750000
vt 0.375000 0.500000
vt 0.625000 0.500000
vt 0.625000 0.500000
vt 0.625000 0.500000
vt 0.625000 0.500000
vt 0.625000 0.500000
vt 0.625000 0.750000
vt 0.375000 0.500000
vn -0.0386 0.0000 0.9993
vn -1.0000 0.0000 0.0000
vn 0.0000 -1.0000 -0.0000
vn -0.0000 0.8163 -0.5776
vn 0.0000 -0.0000 1.0000
vn -0.9349 0.3516 -0.0485
vn -0.9360 0.3521 0.0000
vn 0.0000 1.0000 0.0000
vn -0.0386 0.0000 -0.9993
vn -0.0933 -0.9956 0.0000
vn -0.0933 0.9956 0.0000
vn 1.0000 0.0000 0.0000
vn 0.0000 0.0000 -1.0000
vn 0.0000 0.9906 -0.1367
vn -0.9971 0.0000 0.0758
vn -0.9972 -0.0116 0.0740
vn 0.0000 0.9879 0.1550
vn 0.0000 0.1550 -0.9879
vn 0.0000 -0.1550 0.9879
vn 0.0386 0.0000 0.9993
vn 0.9349 0.3516 -0.0485
vn 0.9360 0.3521 -0.0000
vn 0.0386 0.0000 -0.9993
vn 0.0933 -0.9956 0.0000
vn 0.0933 0.9956 -0.0000
vn 0.9971 0.0000 0.0758
vn 0.9972 -0.0116 0.0740
usemtl None
s off
f 15/1/1 18/2/1 10/3/1
f 1/4/2 5/5/2 4/6/2
f 1/4/3 33/7/3 37/8/3
f 39/9/3 25/10/3 3/11/3
f 7/12/4 32/13/4 5/5/4
f 44/14/5 8/15/5 6/16/5
f 2/17/6 7/12/6 5/5/6
f 4/6/2 22/18/2 23/19/2
f 1/4/3 39/9/3 3/11/3
f 6/16/7 7/12/7 2/17/7
f 8/15/8 41/20/8 7/12/8
f 10/3/2 12/21/2 11/22/2
f 15/1/1 11/22/1 16/23/1
f 17/24/9 13/25/9 14/26/9
f 16/23/10 12/21/10 17/24/10
f 3/11/10 17/24/10 1/4/10
f 1/4/9 14/26/9 2/17/9
f 6/16/1 16/23/1 3/11/1
f 2/17/11 15/1/11 6/16/11
f 21/27/11 19/28/11 18/2/11
f 14/26/9 19/28/9 20/29/9
f 14/26/12 21/27/12 15/1/12
f 10/3/2 19/28/2 13/25/2
f 22/18/13 60/30/13 23/19/13
f 4/6/3 60/30/3 33/7/3
f 32/13/14 22/18/14 5/5/14
f 9/31/5 62/32/5 24/33/5
f 25/10/15 24/33/15 26/34/15
f 24/33/16 28/35/16 26/34/16
f 71/36/17 27/37/17 70/38/17
f 3/11/15 26/34/15 6/16/15
f 44/14/17 26/34/17 66/39/17
f 67/40/3 9/31/3 25/10/3
f 26/34/18 71/36/18 66/39/18
f 62/32/19 27/37/19 24/33/19
f 53/41/20 50/42/20 45/43/20
f 29/44/12 35/45/12 30/46/12
f 33/7/3 29/44/3 37/8/3
f 64/47/3 39/9/3 31/48/3
f 32/13/4 38/49/4 35/45/4
f 40/50/5 44/14/5 36/51/5
f 30/46/21 35/45/21 38/49/21
f 34/52/12 57/53/12 35/45/12
f 39/9/3 29/44/3 31/48/3
f 38/49/22 36/51/22 30/46/22
f 41/20/8 40/50/8 38/49/8
f 47/54/12 45/43/12 46/55/12
f 46/55/20 50/42/20 51/56/20
f 48/57/23 52/58/23 49/59/23
f 52/58/24 46/55/24 51/56/24
f 52/58/24 31/48/24 29/44/24
f 49/59/23 29/44/23 30/46/23
f 51/56/20 36/51/20 31/48/20
f 50/42/25 30/46/25 36/51/25
f 53/41/25 55/60/25 56/61/25
f 49/59/23 54/62/23 48/57/23
f 56/61/2 49/59/2 50/42/2
f 54/62/12 45/43/12 48/57/12
f 60/30/13 57/53/13 58/63/13
f 60/30/3 34/52/3 33/7/3
f 57/53/14 32/13/14 35/45/14
f 62/32/5 43/64/5 63/65/5
f 63/65/26 64/47/26 65/66/26
f 69/67/27 63/65/27 65/66/27
f 71/36/17 68/68/17 69/67/17
f 65/66/26 31/48/26 36/51/26
f 44/14/17 65/66/17 36/51/17
f 43/64/3 67/40/3 64/47/3
f 71/36/18 65/66/18 66/39/18
f 68/68/19 62/32/19 63/65/19
f 15/1/1 21/27/1 18/2/1
f 1/4/2 2/17/2 5/5/2
f 1/4/3 4/6/3 33/7/3
f 39/9/3 67/40/3 25/10/3
f 7/12/4 41/20/4 32/13/4
f 44/14/5 42/69/5 8/15/5
f 4/6/2 5/5/2 22/18/2
f 1/4/3 37/8/3 39/9/3
f 6/16/7 8/15/7 7/12/7
f 8/15/8 42/69/8 41/20/8
f 10/3/2 13/25/2 12/21/2
f 15/1/1 10/3/1 11/22/1
f 17/24/9 12/21/9 13/25/9
f 16/23/10 11/22/10 12/21/10
f 3/11/10 16/23/10 17/24/10
f 1/4/9 17/24/9 14/26/9
f 6/16/1 15/1/1 16/23/1
f 2/17/11 14/26/11 15/1/11
f 21/27/11 20/29/11 19/28/11
f 14/26/9 13/25/9 19/28/9
f 14/26/12 20/29/12 21/27/12
f 10/3/2 18/2/2 19/28/2
f 22/18/13 59/70/13 60/30/13
f 4/6/3 23/19/3 60/30/3
f 32/13/14 59/70/14 22/18/14
f 9/31/5 61/71/5 62/32/5
f 25/10/15 9/31/15 24/33/15
f 24/33/16 27/37/16 28/35/16
f 71/36/17 28/35/17 27/37/17
f 3/11/15 25/10/15 26/34/15
f 44/14/17 6/16/17 26/34/17
f 67/40/3 61/71/3 9/31/3
f 26/34/18 28/35/18 71/36/18
f 62/32/19 70/38/19 27/37/19
f 53/41/20 56/61/20 50/42/20
f 29/44/12 34/52/12 35/45/12
f 33/7/3 34/52/3 29/44/3
f 64/47/3 67/40/3 39/9/3
f 32/13/4 41/20/4 38/49/4
f 40/50/5 42/69/5 44/14/5
f 34/52/12 58/63/12 57/53/12
f 39/9/3 37/8/3 29/44/3
f 38/49/22 40/50/22 36/51/22
f 41/20/8 42/69/8 40/50/8
f 47/54/12 48/57/12 45/43/12
f 46/55/20 45/43/20 50/42/20
f 48/57/23 47/54/23 52/58/23
f 52/58/24 47/54/24 46/55/24
f 52/58/24 51/56/24 31/48/24
f 49/59/23 52/58/23 29/44/23
f 51/56/20 50/42/20 36/51/20
f 50/42/25 49/59/25 30/46/25
f 53/41/25 54/62/25 55/60/25
f 49/59/23 55/60/23 54/62/23
f 56/61/2 55/60/2 49/59/2
f 54/62/12 53/41/12 45/43/12
f 60/30/13 59/70/13 57/53/13
f 60/30/3 58/63/3 34/52/3
f 57/53/14 59/70/14 32/13/14
f 62/32/5 61/71/5 43/64/5
f 63/65/26 43/64/26 64/47/26
f 69/67/27 68/68/27 63/65/27
f 71/36/17 70/38/17 68/68/17
f 65/66/26 64/47/26 31/48/26
f 44/14/17 66/39/17 65/66/17
f 43/64/3 61/71/3 67/40/3
f 71/36/18 69/67/18 65/66/18
f 68/68/19 70/38/19 62/32/19
